<svg width="48" height="48" viewBox="0 0 48 48" fill="none" xmlns="http://www.w3.org/2000/svg">
<circle cx="24" cy="24" r="24" transform="rotate(90 24 24)" fill="#25B8F6"/>
<g style="mix-blend-mode:screen">
<path d="M33.9949 12.2168H15.1345C11.6667 12.2168 9.46874 15.9574 11.2134 18.9813L22.8533 39.1561C23.6129 40.4734 25.5164 40.4734 26.276 39.1561L37.9183 18.9813C39.6606 15.9622 37.4626 12.2168 33.9972 12.2168H33.9949ZM22.8439 33.106L20.3089 28.2L14.1922 17.2605C13.7887 16.5603 14.2871 15.6631 15.1321 15.6631H22.8415V33.1083L22.8439 33.106ZM34.9324 17.2581L28.8181 28.2023L26.2831 33.106V15.6607H33.9925C34.8375 15.6607 35.3359 16.5579 34.9324 17.2581Z" fill="white"/>
</g>
</svg>
